<?xml version="1.0" encoding="UTF-8"?>
<!-- Created with Inkscape (http://www.inkscape.org/) -->
<svg width="300" height="244.72" version="1.1" viewBox="0 0 300 244.72" xml:space="preserve" xmlns="http://www.w3.org/2000/svg" xmlns:cc="http://creativecommons.org/ns#" xmlns:dc="http://purl.org/dc/elements/1.1/" xmlns:rdf="http://www.w3.org/1999/02/22-rdf-syntax-ns#"><metadata><rdf:RDF><cc:Work rdf:about=""><dc:format>image/svg+xml</dc:format><dc:type rdf:resource="http://purl.org/dc/dcmitype/StillImage"/><dc:title/></cc:Work></rdf:RDF></metadata><g transform="matrix(1.3333 0 0 -1.3333 -1034.2 629.78)"><g transform="matrix(1.2417 0 0 1.2417 -185.15 -67.909)" fill="#083437"><path d="m861.69 430.31h5.81c10.445 0 20.937-8.961 20.937-19.913v-42.675c0-10.525-7.891-19.216-17.773-19.874v-3.308h18.59c13.928 0 25.319 11.957 25.319 26.567v35.907c0 14.608-11.391 26.557-25.319 26.557h-103.53v-2.11c2.317-0.612 4.041-2.816 4.041-5.428v-73.917c0-2.609-1.729-4.818-4.041-5.419v-2.124h26.919v2.124c-2.311 0.601-4.046 2.81-4.046 5.419v33.772h19.402c2.022 0 3.729-1.444 4.2-3.373l0.271-1.487 1.37 0.013v25.339h-1.381l-0.26-1.478c-0.471-1.927-2.178-3.362-4.2-3.362h-19.402v24.493c0 1.709 0.741 3.253 1.911 4.277h19.261c10.446 0 18.982-7.72 18.982-18.673v-43.915c0-10.952-8.536-19.92-18.982-19.92h-7.128v-3.262h26.93c13.927 0 25.319 11.957 25.319 26.567v35.907c0 10.01-5.354 18.772-13.202 23.296" fill-rule="evenodd"/><path d="m916.25 433.57h26.929v-2.12c-2.321-0.602-4.043-2.806-4.043-5.419v-73.916c0-2.609 1.722-4.818 4.043-5.419v-2.125h-26.929v2.125c2.321 0.601 4.051 2.81 4.051 5.419v73.916c0 2.613-1.73 4.817-4.051 5.419z" fill-rule="evenodd"/><g fill-rule="evenodd"><path d="m787.35 315.19h-4.88v-2.313h2.022v-2.742c-0.233-0.115-0.777-0.193-1.457-0.193-2.431 0-4.122 1.594-4.122 4.296 0 2.838 1.866 4.238 4.335 4.238 1.438 0 2.332-0.253 3.052-0.564l0.622 2.372c-0.642 0.31-1.944 0.641-3.635 0.641-4.296 0-7.465-2.488-7.484-6.843-0.02-1.924 0.641-3.635 1.846-4.763 1.205-1.166 2.935-1.768 5.326-1.768 1.73 0 3.461 0.428 4.375 0.738z"/><path d="m794.21 317.41c-3.052 0-5.073-1.963-5.073-5.034 0-3.072 2.137-4.9 4.918-4.9 2.546 0 5.014 1.595 5.014 5.074 0 2.858-1.943 4.86-4.859 4.86m-0.077-2.1c1.341 0 1.886-1.438 1.886-2.857 0-1.711-0.74-2.858-1.886-2.858-1.264 0-1.944 1.225-1.944 2.858 0 1.399 0.525 2.857 1.944 2.857"/><path d="m799.71 317.19 3.46-9.505h2.955l3.539 9.505h-3.111l-1.225-4.412c-0.214-0.817-0.37-1.536-0.526-2.313h-0.057c-0.137 0.758-0.311 1.516-0.544 2.313l-1.283 4.412z"/><path d="m893.91 317.41c-3.052 0-5.075-1.963-5.075-5.034 0-3.072 2.14-4.9 4.919-4.9 2.547 0 5.016 1.595 5.016 5.074 0 2.858-1.944 4.86-4.86 4.86m-0.079-2.1c1.342 0 1.886-1.438 1.886-2.857 0-1.711-0.738-2.858-1.886-2.858-1.263 0-1.942 1.225-1.942 2.858 0 1.399 0.523 2.857 1.942 2.857"/><path d="m903.9 307.69v7.329h1.885v2.176h-1.904v0.487c0 0.933 0.408 1.691 1.38 1.691 0.388 0 0.701-0.058 0.952-0.136l0.117 2.274c-0.409 0.117-0.914 0.195-1.575 0.195-0.855 0-1.885-0.253-2.625-0.953-0.854-0.777-1.205-2.041-1.205-3.188v-0.37h-1.244v-2.176h1.244v-7.329z"/><path d="m911.25 307.69h2.975v13.102h-2.975z"/><path d="m916.75 307.69h2.954v5.482c0 0.272 0.039 0.564 0.117 0.739 0.194 0.544 0.68 1.108 1.497 1.108 1.068 0 1.496-0.836 1.496-2.06v-5.269h2.955v5.638c0 2.799-1.458 4.082-3.401 4.082-1.575 0-2.547-0.914-2.937-1.517h-0.057l-0.137 1.302h-2.566c0.039-0.835 0.079-1.846 0.079-3.032z"/><path d="m934.4 321.49v-5.151h-0.038c-0.428 0.66-1.341 1.069-2.508 1.069-2.274 0-4.276-1.847-4.258-5.054 0-2.954 1.809-4.88 4.063-4.88 1.225 0 2.371 0.545 2.974 1.614h0.039l0.137-1.4h2.624c-0.04 0.642-0.078 1.769-0.078 2.839v10.963zm0-9.564c0-0.252-0.019-0.467-0.077-0.68-0.176-0.836-0.857-1.419-1.711-1.419-1.225 0-2.022 1.01-2.022 2.624 0 1.497 0.7 2.702 2.041 2.702 0.914 0 1.556-0.661 1.731-1.458 0.019-0.156 0.038-0.369 0.038-0.524z"/><path d="m942.69 317.19h-2.955v-9.505h2.955zm-1.478 4.142c-0.953 0-1.574-0.642-1.555-1.498-0.019-0.816 0.602-1.477 1.536-1.477 0.972 0 1.593 0.661 1.593 1.477-0.018 0.856-0.621 1.498-1.574 1.498"/><path d="m953.12 307.69c-0.096 0.525-0.136 1.399-0.136 2.313v3.305c0 2.236-1.01 4.102-4.179 4.102-1.73 0-3.033-0.467-3.693-0.836l0.544-1.905c0.622 0.389 1.651 0.719 2.624 0.719 1.458 0 1.73-0.719 1.73-1.225v-0.136c-3.364 0.02-5.579-1.166-5.579-3.635 0-1.515 1.147-2.916 3.072-2.916 1.127 0 2.098 0.408 2.721 1.167h0.059l0.175-0.953zm-3.012 3.46c0-0.174-0.019-0.349-0.059-0.505-0.194-0.603-0.797-1.089-1.535-1.089-0.662 0-1.167 0.37-1.167 1.128 0 1.147 1.205 1.516 2.761 1.497z"/><path d="m819.42 311.5c0.039 0.213 0.097 0.661 0.097 1.166 0 2.353-1.166 4.744-4.238 4.744-3.305 0-4.801-2.663-4.801-5.074 0-2.975 1.847-4.84 5.073-4.84 1.284 0 2.469 0.194 3.442 0.583l-0.39 2.002c-0.796-0.252-1.613-0.389-2.624-0.389-1.38 0-2.585 0.584-2.682 1.808zm-6.143 2.021c0.079 0.798 0.583 1.925 1.828 1.925 1.36 0 1.671-1.205 1.671-1.925z"/><path d="m821.29 307.69h2.954v4.821c0 0.233 0.02 0.466 0.059 0.661 0.195 0.913 0.933 1.497 2.022 1.497 0.33 0 0.582-0.04 0.796-0.078v2.78c-0.214 0.039-0.35 0.039-0.622 0.039-0.914 0-2.08-0.583-2.565-1.964h-0.079l-0.097 1.749h-2.546c0.039-0.816 0.078-1.73 0.078-3.129z"/><path d="m828.67 307.69h2.954v5.482c0 0.272 0.039 0.564 0.117 0.739 0.195 0.544 0.681 1.108 1.497 1.108 1.069 0 1.497-0.836 1.497-2.06v-5.269h2.955v5.638c0 2.799-1.459 4.082-3.402 4.082-1.575 0-2.547-0.914-2.935-1.517h-0.059l-0.136 1.302h-2.566c0.039-0.835 0.078-1.846 0.078-3.032z"/><path d="m840.07 307.69h2.876v5.541c0 0.233 0.02 0.505 0.117 0.738 0.176 0.486 0.623 1.069 1.381 1.069 0.933 0 1.36-0.816 1.36-2.022v-5.326h2.877v5.56c0 0.233 0.039 0.544 0.117 0.758 0.194 0.563 0.68 1.03 1.36 1.03 0.954 0 1.399-0.797 1.399-2.177v-5.171h2.879v5.599c0 2.838-1.382 4.121-3.209 4.121-0.699 0-1.283-0.156-1.807-0.467-0.447-0.272-0.875-0.661-1.225-1.147h-0.038c-0.408 0.992-1.381 1.614-2.606 1.614-1.632 0-2.468-0.895-2.877-1.497h-0.057l-0.137 1.282h-2.488c0.039-0.835 0.078-1.846 0.078-3.032z"/><path d="m865.18 311.5c0.039 0.213 0.097 0.661 0.097 1.166 0 2.353-1.166 4.744-4.238 4.744-3.304 0-4.801-2.663-4.801-5.074 0-2.975 1.846-4.84 5.073-4.84 1.283 0 2.469 0.194 3.441 0.583l-0.389 2.002c-0.797-0.252-1.614-0.389-2.624-0.389-1.38 0-2.585 0.584-2.683 1.808zm-6.144 2.021c0.079 0.798 0.583 1.925 1.828 1.925 1.361 0 1.671-1.205 1.671-1.925z"/><path d="m867.05 307.69h2.954v5.482c0 0.272 0.039 0.564 0.117 0.739 0.194 0.544 0.68 1.108 1.497 1.108 1.068 0 1.496-0.836 1.496-2.06v-5.269h2.955v5.638c0 2.799-1.458 4.082-3.401 4.082-1.575 0-2.547-0.914-2.936-1.517h-0.058l-0.137 1.302h-2.566c0.039-0.835 0.079-1.846 0.079-3.032z"/><path d="m878.73 319.25v-2.061h-1.264v-2.176h1.264v-3.888c0-1.342 0.272-2.255 0.816-2.819 0.467-0.486 1.264-0.817 2.217-0.817 0.836 0 1.534 0.098 1.924 0.253l-0.019 2.236c-0.215-0.039-0.506-0.079-0.875-0.079-0.895 0-1.167 0.525-1.167 1.673v3.441h2.12v2.176h-2.12v2.722z"/></g><g fill-rule="evenodd"><path d="m792.27 327.78h1.607l-0.399 7.27h-2.146l-0.777-2.416c-0.237-0.809-0.485-1.77-0.691-2.61h-0.032c-0.162 0.852-0.388 1.757-0.615 2.599l-0.711 2.427h-2.19l-0.464-7.27h1.522l0.128 2.761c0.055 0.906 0.087 2.028 0.129 3.01h0.022c0.173-0.949 0.421-1.985 0.659-2.837l0.776-2.815h1.284l0.884 2.836c0.281 0.852 0.582 1.888 0.809 2.816h0.033c0-1.058 0.031-2.115 0.064-2.988z"/><path d="m796.79 333.06h-1.639v-5.274h1.639zm-0.819 2.297c-0.529 0-0.874-0.355-0.863-0.83-0.011-0.453 0.334-0.819 0.852-0.819 0.54 0 0.885 0.366 0.885 0.819-0.011 0.475-0.345 0.83-0.874 0.83"/><path d="m798.11 327.78h1.64v3.042c0 0.151 0.02 0.312 0.064 0.41 0.108 0.301 0.377 0.614 0.83 0.614 0.594 0 0.831-0.463 0.831-1.143v-2.923h1.64v3.128c0 1.553-0.81 2.265-1.888 2.265-0.874 0-1.413-0.507-1.629-0.842h-0.032l-0.076 0.723h-1.423c0.021-0.464 0.043-1.024 0.043-1.682z"/><path d="m806.07 333.06h-1.64v-5.274h1.64zm-0.819 2.297c-0.529 0-0.874-0.355-0.863-0.83-0.011-0.453 0.334-0.819 0.851-0.819 0.54 0 0.885 0.366 0.885 0.819-0.011 0.475-0.345 0.83-0.873 0.83"/><path d="m807.08 328.04c0.399-0.215 1.014-0.367 1.704-0.367 1.511 0 2.287 0.723 2.287 1.705-0.011 0.776-0.431 1.284-1.435 1.628-0.647 0.227-0.852 0.356-0.852 0.604 0 0.27 0.227 0.432 0.626 0.432 0.452 0 0.906-0.173 1.143-0.302l0.292 1.132c-0.324 0.162-0.874 0.302-1.49 0.302-1.304 0-2.146-0.744-2.146-1.725-0.01-0.626 0.41-1.22 1.5-1.586 0.614-0.205 0.776-0.335 0.776-0.604 0-0.27-0.204-0.442-0.701-0.442-0.485 0-1.111 0.216-1.412 0.399z"/><path d="m812.29 334.2v-1.143h-0.701v-1.208h0.701v-2.157c0-0.744 0.15-1.252 0.453-1.564 0.259-0.27 0.701-0.453 1.229-0.453 0.464 0 0.852 0.054 1.068 0.14l-0.011 1.24c-0.118-0.021-0.28-0.043-0.485-0.043-0.496 0-0.648 0.292-0.648 0.928v1.909h1.177v1.208h-1.177v1.51z"/><path d="m816.02 327.78h1.64v2.675c0 0.129 0.01 0.259 0.033 0.367 0.107 0.506 0.517 0.83 1.121 0.83 0.184 0 0.323-0.021 0.441-0.043v1.543c-0.118 0.021-0.193 0.021-0.344 0.021-0.507 0-1.154-0.324-1.424-1.09h-0.043l-0.054 0.971h-1.413c0.022-0.452 0.043-0.96 0.043-1.736z"/><path d="m819.72 333.06 1.93-4.821c0.065-0.129 0.076-0.216 0.076-0.27 0-0.076-0.032-0.161-0.087-0.237-0.161-0.27-0.431-0.529-0.679-0.658-0.249-0.151-0.507-0.248-0.712-0.281l0.345-1.391c0.411 0.054 1.014 0.226 1.585 0.723 0.594 0.528 1.101 1.37 1.855 3.462l1.23 3.473h-1.758l-0.647-2.589c-0.075-0.302-0.161-0.7-0.237-0.981h-0.032c-0.066 0.281-0.173 0.669-0.26 0.981l-0.786 2.589z"/><path d="m830.65 333.18c-1.693 0-2.815-1.09-2.815-2.793 0-1.705 1.186-2.719 2.728-2.719 1.414 0 2.783 0.885 2.783 2.816 0 1.585-1.078 2.696-2.696 2.696m-0.043-1.165c0.744 0 1.046-0.798 1.046-1.586 0-0.949-0.41-1.585-1.046-1.585-0.701 0-1.079 0.679-1.079 1.585 0 0.777 0.291 1.586 1.079 1.586"/><path d="m836.19 327.78v4.066h1.046v1.208h-1.057v0.27c0 0.518 0.226 0.938 0.765 0.938 0.216 0 0.388-0.032 0.529-0.075l0.064 1.261c-0.226 0.066-0.507 0.108-0.873 0.108-0.474 0-1.045-0.14-1.456-0.528-0.474-0.432-0.668-1.132-0.668-1.769v-0.205h-0.691v-1.208h0.691v-4.066z"/><path d="m845.36 329.27c-0.324-0.129-0.875-0.237-1.37-0.237-1.467 0-2.33 0.917-2.33 2.373 0 1.617 1.014 2.406 2.319 2.406 0.582 0 1.047-0.13 1.381-0.271l0.334 1.306c-0.292 0.151-0.938 0.323-1.791 0.323-2.2 0-3.969-1.38-3.969-3.861 0-2.071 1.294-3.635 3.808-3.635 0.884 0 1.563 0.162 1.865 0.313z"/><path d="m848.94 333.18c-1.694 0-2.816-1.09-2.816-2.793 0-1.705 1.187-2.719 2.729-2.719 1.414 0 2.782 0.885 2.782 2.816 0 1.585-1.078 2.696-2.695 2.696m-0.044-1.165c0.744 0 1.046-0.798 1.046-1.586 0-0.949-0.409-1.585-1.046-1.585-0.701 0-1.078 0.679-1.078 1.585 0 0.777 0.29 1.586 1.078 1.586"/><path d="m852.65 327.78h1.596v3.074c0 0.13 0.011 0.28 0.065 0.41 0.097 0.269 0.345 0.594 0.766 0.594 0.517 0 0.755-0.454 0.755-1.123v-2.955h1.596v3.084c0 0.13 0.022 0.303 0.064 0.422 0.108 0.312 0.377 0.572 0.755 0.572 0.529 0 0.777-0.443 0.777-1.209v-2.869h1.597v3.106c0 1.575-0.766 2.287-1.781 2.287-0.388 0-0.711-0.086-1.002-0.259-0.249-0.151-0.486-0.366-0.68-0.636h-0.021c-0.226 0.55-0.765 0.895-1.445 0.895-0.907 0-1.37-0.497-1.597-0.831h-0.032l-0.075 0.712h-1.381c0.021-0.464 0.043-1.024 0.043-1.682z"/><path d="m861.93 327.78h1.596v3.074c0 0.13 0.01 0.28 0.064 0.41 0.097 0.269 0.346 0.594 0.766 0.594 0.518 0 0.755-0.454 0.755-1.123v-2.955h1.597v3.084c0 0.13 0.021 0.303 0.064 0.422 0.108 0.312 0.377 0.572 0.755 0.572 0.528 0 0.777-0.443 0.777-1.209v-2.869h1.596v3.106c0 1.575-0.766 2.287-1.78 2.287-0.388 0-0.711-0.086-1.003-0.259-0.248-0.151-0.486-0.366-0.679-0.636h-0.023c-0.225 0.55-0.765 0.895-1.445 0.895-0.905 0-1.369-0.497-1.596-0.831h-0.032l-0.075 0.712h-1.381c0.022-0.464 0.044-1.024 0.044-1.682z"/><path d="m875.86 329.9c0.021 0.119 0.054 0.367 0.054 0.647 0 1.306-0.648 2.632-2.351 2.632-1.834 0-2.665-1.478-2.665-2.815 0-1.65 1.025-2.686 2.816-2.686 0.712 0 1.37 0.108 1.908 0.324l-0.216 1.111c-0.441-0.141-0.895-0.216-1.455-0.216-0.765 0-1.435 0.324-1.488 1.003zm-3.408 1.122c0.042 0.442 0.323 1.067 1.013 1.067 0.755 0 0.928-0.668 0.928-1.067z"/><path d="m876.9 327.78h1.64v2.675c0 0.129 0.01 0.259 0.032 0.367 0.108 0.506 0.518 0.83 1.122 0.83 0.184 0 0.323-0.021 0.442-0.043v1.543c-0.119 0.021-0.194 0.021-0.345 0.021-0.506 0-1.154-0.324-1.424-1.09h-0.043l-0.054 0.971h-1.413c0.022-0.452 0.043-0.96 0.043-1.736z"/><path d="m884.68 329.12c-0.248-0.097-0.55-0.162-0.938-0.162-0.797 0-1.445 0.507-1.445 1.478-0.011 0.863 0.55 1.477 1.412 1.477 0.432 0 0.723-0.075 0.917-0.162l0.259 1.219c-0.345 0.129-0.82 0.205-1.251 0.205-1.963 0-3.019-1.262-3.019-2.804 0-1.661 1.089-2.697 2.792-2.697 0.627 0 1.176 0.108 1.467 0.238z"/><path d="m890.32 329.9c0.021 0.119 0.054 0.367 0.054 0.647 0 1.306-0.647 2.632-2.352 2.632-1.834 0-2.664-1.478-2.664-2.815 0-1.65 1.025-2.686 2.815-2.686 0.712 0 1.371 0.108 1.91 0.324l-0.217 1.111c-0.442-0.141-0.895-0.216-1.456-0.216-0.765 0-1.434 0.324-1.487 1.003zm-3.408 1.122c0.042 0.442 0.322 1.067 1.013 1.067 0.755 0 0.928-0.668 0.928-1.067z"/><path d="m900.12 327.78c-0.453 0.485-0.875 0.96-1.284 1.424 0.646 0.722 1.013 1.66 1.208 2.761h-1.467c-0.097-0.647-0.323-1.316-0.615-1.769-0.356 0.367-0.798 0.896-1.218 1.359l0.01 0.043c1.003 0.508 1.435 1.133 1.435 1.867 0 1.045-0.852 1.703-1.974 1.703-1.456 0-2.179-1.003-2.179-1.92 0-0.517 0.237-1.056 0.55-1.402v-0.043c-0.83-0.431-1.38-1.122-1.38-2.081 0-1.014 0.776-2.061 2.534-2.061 0.863 0 1.521 0.27 1.995 0.637 0.173-0.194 0.324-0.356 0.475-0.518zm-4.153 1.068c-0.744 0-1.208 0.529-1.208 1.143 0 0.475 0.269 0.788 0.572 1.003 0.593-0.669 1.186-1.326 1.639-1.779-0.216-0.206-0.572-0.367-1.003-0.367m0.194 5.296c0.432 0 0.637-0.377 0.637-0.723 0-0.421-0.271-0.701-0.799-1.068-0.323 0.356-0.496 0.679-0.496 1.047 0 0.377 0.237 0.744 0.658 0.744"/><path d="m903.08 327.78h1.651v7.27h-1.651z"/><path d="m906.13 327.78h1.639v3.042c0 0.151 0.022 0.312 0.066 0.41 0.107 0.301 0.377 0.614 0.829 0.614 0.593 0 0.832-0.463 0.832-1.143v-2.923h1.638v3.128c0 1.553-0.808 2.265-1.887 2.265-0.873 0-1.412-0.507-1.629-0.842h-0.032l-0.075 0.723h-1.424c0.021-0.464 0.043-1.024 0.043-1.682z"/><path d="m915.92 335.44v-2.858h-0.021c-0.237 0.366-0.745 0.593-1.391 0.593-1.263 0-2.373-1.025-2.363-2.804 0-1.64 1.003-2.708 2.254-2.708 0.68 0 1.316 0.302 1.651 0.896h0.021l0.076-0.777h1.456c-0.022 0.356-0.044 0.982-0.044 1.575v6.083zm0-5.307c0-0.14-0.011-0.259-0.043-0.377-0.097-0.464-0.475-0.788-0.949-0.788-0.679 0-1.121 0.561-1.121 1.456 0 0.831 0.387 1.5 1.132 1.5 0.507 0 0.863-0.367 0.96-0.81 0.01-0.086 0.021-0.204 0.021-0.29z"/><path d="m923.85 333.06h-1.65v-3.139c0-0.129-0.011-0.258-0.054-0.356-0.108-0.258-0.367-0.571-0.819-0.571-0.572 0-0.82 0.464-0.82 1.229v2.837h-1.651v-3.096c0-1.629 0.788-2.297 1.856-2.297 0.949 0 1.445 0.539 1.65 0.863h0.032l0.076-0.744h1.423c-0.021 0.442-0.043 1.003-0.043 1.693z"/><path d="m924.87 328.04c0.398-0.215 1.013-0.367 1.703-0.367 1.51 0 2.287 0.723 2.287 1.705-0.011 0.776-0.432 1.284-1.435 1.628-0.647 0.227-0.852 0.356-0.852 0.604 0 0.27 0.227 0.432 0.625 0.432 0.454 0 0.906-0.173 1.144-0.302l0.292 1.132c-0.324 0.162-0.874 0.302-1.49 0.302-1.304 0-2.146-0.744-2.146-1.725-0.011-0.626 0.411-1.22 1.5-1.586 0.614-0.205 0.776-0.335 0.776-0.604 0-0.27-0.204-0.442-0.701-0.442-0.485 0-1.111 0.216-1.413 0.399z"/><path d="m930.07 334.2v-1.143h-0.701v-1.208h0.701v-2.157c0-0.744 0.151-1.252 0.453-1.564 0.259-0.27 0.701-0.453 1.229-0.453 0.464 0 0.853 0.054 1.068 0.14l-0.011 1.24c-0.118-0.021-0.281-0.043-0.485-0.043-0.496 0-0.648 0.292-0.648 0.928v1.909h1.177v1.208h-1.177v1.51z"/><path d="m933.81 327.78h1.64v2.675c0 0.129 0.01 0.259 0.032 0.367 0.108 0.506 0.518 0.83 1.122 0.83 0.184 0 0.323-0.021 0.442-0.043v1.543c-0.119 0.021-0.194 0.021-0.345 0.021-0.507 0-1.154-0.324-1.424-1.09h-0.043l-0.054 0.971h-1.413c0.021-0.452 0.043-0.96 0.043-1.736z"/><path d="m937.5 333.06 1.932-4.821c0.064-0.129 0.075-0.216 0.075-0.27 0-0.076-0.032-0.161-0.086-0.237-0.162-0.27-0.432-0.529-0.68-0.658-0.248-0.151-0.507-0.248-0.712-0.281l0.345-1.391c0.41 0.054 1.014 0.226 1.586 0.723 0.594 0.528 1.101 1.37 1.855 3.462l1.229 3.473h-1.757l-0.648-2.589c-0.075-0.302-0.161-0.7-0.237-0.981h-0.032c-0.065 0.281-0.173 0.669-0.26 0.981l-0.787 2.589z"/></g><path d="m778.9 288.8h-1.235c-0.65 0.977-1.15 2.009-1.497 3.101-0.351 1.091-0.525 2.149-0.525 3.173 0 1.107 0.174 2.185 0.525 3.239 0.349 1.051 0.855 2.049 1.513 2.996h1.236c-0.602-1.354-1.011-2.488-1.223-3.396-0.211-0.912-0.318-1.877-0.318-2.892 0-1.049 0.149-2.16 0.447-3.331 0.21-0.825 0.569-1.787 1.077-2.89m9.9 2.801h-2.059l-0.805 2.16h-3.787l-0.778-2.16h-2.022l3.661 9.548h2.028zm-3.485 3.773-1.305 3.546-1.278-3.546zm10.67-3.773h-1.813v3.535c0 0.707-0.035 1.181-0.101 1.414-0.067 0.236-0.195 0.416-0.38 0.542-0.185 0.127-0.396 0.189-0.631 0.189-0.303 0-0.575-0.082-0.821-0.244s-0.417-0.389-0.517-0.676c-0.098-0.286-0.149-0.827-0.149-1.622v-3.138h-1.814v6.92h1.685v-1.011c0.298 0.389 0.634 0.684 1.006 0.878 0.375 0.196 0.786 0.293 1.241 0.293 0.527 0 0.973-0.112 1.334-0.342 0.363-0.228 0.615-0.521 0.751-0.88 0.14-0.357 0.209-0.878 0.209-1.556zm5.456 9.548h1.893v-9.548h-1.893zm3.754-9.548v9.548h1.843l3.869-6.377v6.377h1.765v-9.548h-1.907l-3.805 6.225v-6.225zm9.4 9.548h1.893v-9.548h-1.893zm11.856-9.548v1.037c-0.251-0.375-0.579-0.668-0.986-0.88-0.406-0.211-0.832-0.317-1.275-0.317-0.45 0-0.851 0.097-1.206 0.294-0.356 0.194-0.621 0.473-0.795 0.835-0.174 0.36-0.262 0.884-0.262 1.571v4.38h1.813v-3.178c0-0.909 0.027-1.484 0.083-1.731 0.053-0.245 0.174-0.436 0.361-0.569 0.188-0.136 0.414-0.202 0.68-0.202 0.302 0 0.58 0.089 0.837 0.265 0.253 0.175 0.422 0.401 0.502 0.677s0.12 0.882 0.12 1.821v2.917h1.813v-6.92zm9.74 0h-1.813v3.535c0 0.707-0.035 1.181-0.102 1.414-0.066 0.236-0.195 0.416-0.379 0.542-0.184 0.127-0.396 0.189-0.632 0.189-0.302 0-0.575-0.082-0.82-0.244-0.246-0.162-0.418-0.389-0.516-0.676-0.1-0.286-0.15-0.827-0.15-1.622v-3.138h-1.814v6.92h1.685v-1.011c0.297 0.389 0.634 0.684 1.006 0.878 0.374 0.196 0.786 0.293 1.241 0.293 0.526 0 0.974-0.112 1.334-0.342 0.364-0.228 0.615-0.521 0.752-0.88 0.139-0.357 0.208-0.878 0.208-1.556zm8.103 0h-1.685v1.015c-0.276-0.391-0.602-0.684-0.979-0.88-0.375-0.198-0.759-0.295-1.155-0.295-0.762 0-1.425 0.315-1.992 0.948-0.564 0.634-0.848 1.536-0.848 2.712 0 1.182 0.276 2.076 0.829 2.678 0.551 0.603 1.233 0.902 2.04 0.902 0.38 0 0.736-0.079 1.068-0.238 0.328-0.164 0.634-0.404 0.909-0.726v3.432h1.813zm-4.813 3.607c0-0.627 0.064-1.094 0.192-1.402 0.125-0.307 0.307-0.538 0.545-0.694 0.239-0.153 0.505-0.231 0.802-0.231 0.397 0 0.738 0.177 1.03 0.535 0.291 0.358 0.439 0.896 0.439 1.616 0 0.798-0.142 1.371-0.425 1.723-0.284 0.351-0.645 0.526-1.084 0.526-0.416 0-0.769-0.17-1.061-0.515-0.292-0.344-0.438-0.864-0.438-1.558m10.557-1.407 1.797-0.307c-0.241-0.695-0.615-1.211-1.123-1.549-0.508-0.335-1.126-0.504-1.854-0.504-1.01 0-1.789 0.28-2.339 0.842-0.65 0.651-0.973 1.564-0.973 2.738 0 1.158 0.326 2.085 0.978 2.78 0.554 0.587 1.271 0.88 2.147 0.88 0.977 0 1.742-0.299 2.294-0.9 0.64-0.687 0.958-1.7 0.958-3.038l-7e-3 -0.209h-4.526c0.011-0.546 0.158-0.971 0.447-1.271 0.286-0.3 0.631-0.449 1.035-0.449 0.583 0 0.971 0.329 1.166 0.987m0.096 1.853c-0.016 0.541-0.155 0.947-0.417 1.218-0.262 0.274-0.572 0.409-0.936 0.409-0.382 0-0.703-0.142-0.965-0.424-0.268-0.287-0.398-0.689-0.394-1.203zm4.99-4.053h-1.813v6.92h1.685v-0.982c0.288 0.46 0.545 0.765 0.773 0.916 0.227 0.151 0.489 0.226 0.786 0.226 0.414 0 0.807-0.115 1.184-0.344l-0.564-1.596c-0.299 0.2-0.58 0.301-0.847 0.301-0.252 0-0.473-0.078-0.666-0.232-0.19-0.156-0.329-0.433-0.412-0.838-0.083-0.404-0.126-1.148-0.126-2.231zm7.073 0v9.548h6.451v-1.614h-4.557v-2.267h3.947v-1.614h-3.947v-4.053zm8.007 9.548h3.468c0.877 0 1.541-0.083 1.987-0.245 0.447-0.162 0.855-0.437 1.233-0.824 0.377-0.385 0.671-0.887 0.885-1.503 0.214-0.618 0.321-1.384 0.321-2.3 0-0.825-0.113-1.542-0.338-2.152-0.224-0.611-0.507-1.093-0.852-1.449-0.345-0.357-0.762-0.625-1.249-0.804-0.489-0.18-1.117-0.271-1.885-0.271h-3.57zm1.893-1.614v-6.321h1.428c0.612 0 1.056 0.047 1.332 0.142 0.274 0.096 0.5 0.24 0.674 0.434 0.176 0.193 0.32 0.497 0.435 0.916 0.116 0.415 0.174 0.964 0.174 1.646 0 0.707-0.058 1.265-0.176 1.675-0.118 0.406-0.302 0.728-0.551 0.961-0.249 0.234-0.551 0.389-0.907 0.463-0.264 0.055-0.78 0.084-1.545 0.084zm7.603 1.614h3.468c0.877 0 1.54-0.083 1.987-0.245 0.446-0.162 0.855-0.437 1.232-0.824 0.377-0.385 0.672-0.887 0.886-1.503 0.214-0.618 0.321-1.384 0.321-2.3 0-0.825-0.113-1.542-0.338-2.152-0.224-0.611-0.507-1.093-0.852-1.449-0.345-0.357-0.763-0.625-1.249-0.804-0.489-0.18-1.117-0.271-1.886-0.271h-3.569zm1.893-1.614v-6.321h1.428c0.612 0 1.056 0.047 1.332 0.142 0.275 0.096 0.499 0.24 0.674 0.434 0.176 0.193 0.321 0.497 0.435 0.916 0.115 0.415 0.174 0.964 0.174 1.646 0 0.707-0.059 1.265-0.176 1.675-0.118 0.406-0.302 0.728-0.551 0.961-0.248 0.234-0.551 0.389-0.907 0.463-0.264 0.055-0.78 0.084-1.545 0.084zm7.555 1.614h1.892v-9.548h-1.892zm15.389-9.548h-2.059l-0.806 2.16h-3.786l-0.778-2.16h-2.021l3.661 9.548h2.027zm-3.484 3.773-1.305 3.546-1.279-3.546zm10.429 1.094-1.781-0.32c-0.131 0.729-0.543 1.093-1.238 1.093-0.447 0-0.808-0.155-1.081-0.469-0.273-0.313-0.409-0.842-0.409-1.586 0-0.823 0.136-1.403 0.409-1.742 0.271-0.341 0.634-0.51 1.089-0.51 0.339 0 0.62 0.098 0.84 0.291 0.219 0.194 0.377 0.538 0.47 1.029l1.781-0.307c-0.367-1.67-1.417-2.506-3.155-2.506-1.111 0-1.934 0.353-2.472 1.058-0.537 0.704-0.807 1.551-0.807 2.542 0 1.187 0.305 2.092 0.914 2.711 0.61 0.621 1.408 0.929 2.397 0.929 0.799 0 1.452-0.177 1.957-0.53 0.503-0.354 0.866-0.914 1.086-1.683m4.492 2.053v-1.452h-1.235v-2.795c0-0.606 0.018-0.955 0.057-1.051 0.071-0.175 0.221-0.262 0.446-0.262 0.165 0 0.406 0.058 0.719 0.175l0.158-1.422c-0.417-0.182-0.89-0.273-1.42-0.273-0.46 0-0.829 0.091-1.107 0.273-0.275 0.185-0.463 0.447-0.557 0.791-0.072 0.251-0.11 0.765-0.11 1.541v3.023h-0.834v1.452h0.834v1.374l1.814 1.067v-2.441zm10.622-5.227v-1.693h-6.321c0.066 0.641 0.274 1.251 0.62 1.828 0.348 0.581 1.022 1.339 2.022 2.281 0.791 0.749 1.277 1.256 1.459 1.52 0.271 0.387 0.407 0.774 0.407 1.165 0 0.415-0.112 0.728-0.334 0.943-0.225 0.21-0.519 0.317-0.883 0.317-0.794 0-1.225-0.498-1.286-1.494l-1.797 0.201c0.11 0.968 0.433 1.68 0.974 2.133 0.54 0.453 1.259 0.68 2.157 0.68 0.988 0 1.731-0.266 2.23-0.8 0.501-0.533 0.752-1.144 0.752-1.836 0-0.391-0.064-0.769-0.193-1.135-0.125-0.367-0.323-0.736-0.587-1.107-0.268-0.372-0.709-0.845-1.33-1.42-0.577-0.542-0.943-0.9-1.099-1.076-0.153-0.173-0.278-0.342-0.372-0.507zm4.273 7.881c0.912 0 1.651-0.36 2.215-1.082s0.844-1.985 0.844-3.787c0-1.8-0.28-3.061-0.844-3.783-0.564-0.723-1.299-1.082-2.206-1.082-0.915 0-1.653 0.358-2.217 1.073-0.565 0.716-0.845 1.985-0.845 3.809 0 1.792 0.28 3.048 0.845 3.77 0.564 0.722 1.299 1.082 2.208 1.082m3e-3 -1.52c-0.353 0-0.637-0.196-0.848-0.584-0.211-0.39-0.315-1.312-0.315-2.765 0-1.456 0.104-2.376 0.315-2.765 0.211-0.387 0.495-0.58 0.848-0.58 0.359 0 0.642 0.195 0.85 0.584 0.209 0.389 0.314 1.309 0.314 2.761 0 1.453-0.105 2.375-0.314 2.765-0.208 0.388-0.491 0.584-0.85 0.584m8.881-8.054h-1.813v6.894c-0.671-0.629-1.447-1.091-2.326-1.387v1.668c0.502 0.168 1.021 0.468 1.558 0.901 0.541 0.434 0.913 0.934 1.124 1.498h1.457zm2.696 7.72v1.694h6.161v-1.329c-0.506-0.507-1.017-1.229-1.535-2.165-0.516-0.933-0.917-1.937-1.201-3.007-0.284-1.068-0.425-2.04-0.425-2.913h-1.733c0.042 1.355 0.313 2.709 0.813 4.058 0.497 1.351 1.171 2.571 2.019 3.662zm7.204-10.521c0.508 1.094 0.864 2.045 1.069 2.858 0.303 1.178 0.455 2.3 0.455 3.363 0 1.015-0.107 1.98-0.318 2.892-0.211 0.908-0.62 2.042-1.223 3.396h1.237c0.673-0.98 1.181-1.991 1.524-3.033 0.342-1.04 0.513-2.081 0.513-3.117 0-1.042-0.171-2.111-0.511-3.212-0.342-1.1-0.845-2.149-1.511-3.147z"/></g></g></svg>
